<svg preserveAspectRatio="none" overflow="visible" style="display: block;" width="185.402" height="50.1279" viewBox="0 0 185.402 50.1279" fill="none" xmlns="http://www.w3.org/2000/svg">
<path id="Subtract" d="M102.968 21.7129C106.902 21.7129 109.907 22.5886 111.981 24.3398C114.056 26.0912 115.093 28.6112 115.093 31.8994V43.9629C115.093 44.8562 115.147 45.7673 115.254 46.6963C115.397 47.5898 115.612 48.5553 115.898 49.5918H107.85C107.635 48.8056 107.474 47.9657 107.367 47.0723C107.32 46.4848 107.29 45.8351 107.273 45.124C106.512 46.5938 105.489 47.744 104.201 48.5732C102.592 49.6096 100.625 50.1279 98.2998 50.1279C95.5815 50.1279 93.4172 49.4489 91.8076 48.0908C90.198 46.6969 89.3926 44.8558 89.3926 42.5684C89.3926 40.0309 90.3408 37.9939 92.2363 36.457C94.1678 34.8845 96.8505 33.8651 100.284 33.4004L107.045 32.4482V31.042C107.045 29.934 106.669 29.0764 105.918 28.4688C105.203 27.8254 104.13 27.5029 102.699 27.5029C101.34 27.5029 100.248 27.7355 99.4258 28.2002C98.6391 28.6648 98.1205 29.344 97.8701 30.2373H90.1973C90.2421 29.9285 90.3016 29.6264 90.375 29.3311C90.3205 29.3286 90.2635 29.3262 90.2041 29.3262C89.8822 29.2904 89.4884 29.2725 89.0234 29.2725C86.4481 29.2725 84.5521 29.7368 83.3359 30.666C82.1198 31.5596 81.5117 33.1151 81.5117 35.3311V49.5918H73.4639V22.249H81.3506V27.2637C81.9899 25.7015 82.8666 24.4591 83.9805 23.5361C85.447 22.321 87.2712 21.7129 89.4531 21.7129C90.1326 21.7129 90.6332 21.7848 90.9551 21.9277V27.71C91.605 26.3425 92.6212 25.1474 94.0068 24.126C96.1888 22.5176 99.1762 21.7129 102.968 21.7129ZM144.688 49.5918H136.8V45.3496C136.247 46.5403 135.353 47.5433 134.117 48.3584C132.364 49.5379 130.254 50.1279 127.786 50.1279C125.282 50.1279 123.1 49.5558 121.24 48.4121C119.416 47.2326 118.003 45.5882 117.002 43.4795C116 41.3708 115.499 38.8866 115.499 36.0273C115.499 33.1325 116.018 30.6131 117.056 28.4688C118.093 26.3243 119.541 24.6619 121.401 23.4824C123.297 22.3029 125.497 21.7129 128.001 21.7129C130.612 21.7129 132.722 22.3209 134.332 23.5361C135.374 24.3056 136.143 25.2542 136.64 26.3818V10.9902H144.688V49.5918ZM77.999 17.3164H65.3896V49.5918H57.127V17.3164H44.5186V10.9902H77.999V17.3164ZM155.629 49.5918H147.366V19.6152H155.629V49.5918ZM176.013 21.7129C179.053 21.7129 181.378 22.5708 182.987 24.2861C184.597 25.966 185.402 28.2363 185.402 31.0957V49.5918H177.354V32.6504C177.354 31.1493 176.961 30.023 176.174 29.2725C175.423 28.5219 174.313 28.1465 172.847 28.1465C171.595 28.1465 170.468 28.4331 169.467 29.0049C168.501 29.5767 167.732 30.3627 167.16 31.3633C166.624 32.3639 166.355 33.5434 166.354 34.9014V49.5918H158.307V22.249H166.194V27.2422C167.047 25.7334 168.174 24.4981 169.574 23.5361C171.327 22.3209 173.473 21.7129 176.013 21.7129ZM22.6084 21.9414V49.5664L11.5488 39.791V11.3926L22.6084 21.9414ZM101.626 37.958C100.195 38.1725 99.1396 38.5658 98.46 39.1377C97.7807 39.7095 97.4414 40.4956 97.4414 41.4961C97.4414 42.3896 97.7634 43.0686 98.4072 43.5332C99.0511 43.9978 99.9094 44.2305 100.982 44.2305C102.663 44.2304 104.094 43.784 105.274 42.8906C106.455 41.9614 107.045 40.8889 107.045 39.6738V37.1279L101.626 37.958ZM130.254 28.1465C128.394 28.1466 126.856 28.8255 125.64 30.1836C124.459 31.5417 123.869 33.4719 123.869 35.9736C123.869 38.4755 124.459 40.3885 125.64 41.7109C126.856 43.0333 128.43 43.6943 130.361 43.6943C132.257 43.6943 133.795 43.0332 134.976 41.7109C136.156 40.3528 136.746 38.4226 136.746 35.9209C136.746 33.419 136.138 31.506 134.922 30.1836C133.742 28.8256 132.185 28.1465 130.254 28.1465ZM155.629 17.7988H147.366V10.9902H155.629V17.7988ZM36.8877 11.252H11.4795L0 0H36.8877V11.252Z" fill="white"/>
</svg>
