<svg xmlns="http://www.w3.org/2000/svg" width="115" height="64" viewBox="0 0 115 64" fill="none">
	<g clip-path="url(#clip0_6092_4660)">
		<path d="M86.1884 1.76298C87.2915 0.644394 88.6063 0.0834961 90.133 0.0834961C91.6628 0.0834961 92.9776 0.644394 94.0776 1.76298C95.1807 2.87837 95.7338 4.2117 95.7338 5.76298C95.7338 7.31106 95.1807 8.64439 94.0776 9.76298C92.9776 10.8784 91.6628 11.4361 90.133 11.4361C88.6063 11.4361 87.2915 10.8784 86.1884 9.76298C85.0885 8.64439 84.5385 7.31106 84.5385 5.76298C84.5385 4.2117 85.0885 2.87837 86.1884 1.76298Z" fill="white"/>
		<path d="M85.2844 17.2181V44.9553H94.7224V24.5194H97.9697V35.1668C97.9697 36.505 98.1104 37.7598 98.3933 38.9297C98.6793 40.1011 99.1518 41.2181 99.8093 42.2822C100.467 43.3431 101.434 44.1893 102.711 44.8207C103.991 45.4521 105.521 45.7694 107.3 45.7694C109.895 45.7694 112.206 45.1925 114.229 44.0386L111.883 36.3079L111.567 36.5194C111.352 36.6652 111.049 36.8111 110.657 36.9553C110.268 37.1011 109.895 37.1733 109.538 37.1733C108.117 37.1733 107.408 35.8944 107.408 33.3335V24.5194H113.167V17.2181H107.408V6.8912H97.9697V17.2181L85.2844 17.2181Z" fill="white"/>
		<path fill-rule="evenodd" clip-rule="evenodd" d="M51.5733 20.2245C53.2561 21.7943 54.4192 23.7819 55.0619 26.1868V17.2181H64.4999V20.1412H64.6073C67.0601 17.654 69.6724 16.4104 72.4459 16.4104C73.794 16.4104 75.1341 16.5931 76.4664 16.9553C77.8018 17.3143 79.0835 17.872 80.3098 18.6284C81.5362 19.3848 82.5302 20.4585 83.2936 21.8463C84.0553 23.2309 84.4377 24.8431 84.4377 26.6797V44.9553H74.9998V29.2758C74.9998 27.8367 74.5462 26.5755 73.6407 25.4938C72.7336 24.4136 71.5514 23.872 70.0943 23.872C68.6736 23.872 67.3856 24.4329 66.2319 25.5515C65.0767 26.6668 64.4999 27.9088 64.4999 29.2758V44.9553H55.0619V38.7111C52.2056 43.4166 47.5154 45.7694 40.9911 45.7694C36.8695 45.7694 33.3327 44.3383 30.3837 41.4745C29.6337 40.7458 28.9791 39.9791 28.4198 39.1745V44.9553H0.105957L13.6465 24.5194H2.34375V17.2181H29.4818L15.9412 37.654H27.4996C26.4722 35.6785 25.9587 33.4989 25.9587 31.1156C25.9587 27.0771 27.4332 23.6188 30.3837 20.7374C33.3327 17.8527 36.8695 16.4104 40.9911 16.4104C45.3277 16.4104 48.855 17.6829 51.5733 20.2245ZM35.7696 32.4104H55.0619V38.4614L48.3493 35.0643C47.2115 36.287 46.1969 37.1059 45.3087 37.5194C44.4237 37.9345 43.2163 38.1412 41.6865 38.1412C40.2278 38.1412 38.8766 37.6733 37.6344 36.7374C36.3907 35.8015 35.7696 34.3591 35.7696 32.4104ZM46.4339 27.1156H36.0351C36.1062 25.7822 36.604 24.7021 37.527 23.872C38.4499 23.0434 39.6952 22.6284 41.263 22.6284C42.6821 22.6284 43.8453 23.0162 44.7524 23.7886C45.658 24.5627 46.219 25.6716 46.4339 27.1156Z" fill="white"/>
		<path d="M52.2514 61.5786C52.1961 61.5193 52.1265 61.4889 52.0428 61.4889H50.9428C50.8575 61.4889 50.7864 61.5193 50.7279 61.5786C50.6726 61.6347 50.6457 61.7068 50.6457 61.7966C50.6457 61.8831 50.6726 61.9536 50.7279 62.0081C50.7864 62.0642 50.8575 62.0914 50.9428 62.0914H51.6951V63.0979C51.5845 63.1539 51.4517 63.1988 51.2968 63.2325C51.1404 63.2677 50.9903 63.2838 50.848 63.2838C50.5477 63.2838 50.2743 63.21 50.0262 63.0594C49.7765 62.9104 49.5806 62.7068 49.4383 62.4504C49.2945 62.194 49.2234 61.912 49.2234 61.6043C49.2234 61.2966 49.2945 61.0145 49.4383 60.7581C49.5806 60.5017 49.7765 60.2998 50.0262 60.1491C50.2743 60.0001 50.5477 59.9248 50.848 59.9248C51.1262 59.9248 51.4011 59.9889 51.6761 60.1171C51.7172 60.1475 51.771 60.162 51.8342 60.162C51.9132 60.162 51.9811 60.1331 52.0365 60.0722C52.0949 60.0081 52.125 59.936 52.125 59.8543C52.125 59.803 52.1123 59.7565 52.087 59.7132C52.0617 59.6716 52.0238 59.6347 51.9732 59.6043C51.8168 59.5113 51.6414 59.4424 51.4486 59.3991C51.2589 59.3527 51.0582 59.3286 50.848 59.3286C50.4308 59.3286 50.0468 59.4296 49.6975 59.6299C49.3514 59.8318 49.078 60.1075 48.8757 60.4568C48.6766 60.803 48.5786 61.186 48.5786 61.6043C48.5786 62.0241 48.6766 62.4088 48.8757 62.7581C49.078 63.1043 49.3514 63.3799 49.6975 63.585C50.0468 63.787 50.4308 63.8863 50.848 63.8863C51.0882 63.8863 51.3221 63.8511 51.5497 63.7838C51.7804 63.7116 51.9938 63.6139 52.1882 63.4889C52.2846 63.4248 52.3336 63.335 52.3336 63.2197V61.7966C52.3336 61.7116 52.3051 61.6395 52.2514 61.5786Z" fill="white"/>
		<path d="M11.8622 59.3799C11.9507 59.3799 12.0202 59.4104 12.0708 59.4697C12.1245 59.5257 12.153 59.5979 12.153 59.6876V62.1171C12.153 62.4504 12.0787 62.7517 11.9317 63.0209C11.7832 63.287 11.5809 63.4937 11.3249 63.6427C11.072 63.7934 10.7844 63.8671 10.4651 63.8671C10.1396 63.8671 9.84723 63.7934 9.58647 63.6427C9.32887 63.4937 9.12658 63.287 8.97961 63.0209C8.83579 62.7517 8.76468 62.4504 8.76468 62.1171V59.6876C8.76468 59.5979 8.79312 59.5257 8.85318 59.4697C8.91165 59.4104 8.98593 59.3799 9.07443 59.3799C9.15345 59.3799 9.22298 59.4104 9.28304 59.4697C9.34625 59.5305 9.37786 59.6027 9.37786 59.6876V62.1171C9.37786 62.3398 9.42527 62.5386 9.52325 62.7132C9.6244 62.8895 9.75715 63.0257 9.9215 63.1235C10.089 63.218 10.2708 63.2645 10.4651 63.2645C10.6627 63.2645 10.846 63.218 11.0151 63.1235C11.1874 63.0257 11.3249 62.8895 11.426 62.7132C11.5303 62.5386 11.584 62.3398 11.584 62.1171V59.6876C11.584 59.5979 11.6062 59.5257 11.6536 59.4697C11.7042 59.4104 11.7737 59.3799 11.8622 59.3799Z" fill="white"/>
		<path d="M1.78174 61.2838V59.9697H3.596C3.67975 59.9697 3.75087 59.9424 3.81093 59.8863C3.8694 59.8318 3.89943 59.7645 3.89943 59.6876C3.89943 59.5979 3.8694 59.5257 3.81093 59.4697C3.75561 59.4152 3.6845 59.3863 3.596 59.3863H1.46566C1.38506 59.3863 1.31553 59.4168 1.25706 59.4761C1.197 59.537 1.16855 59.6091 1.16855 59.694V63.5209C1.16855 63.6027 1.197 63.6732 1.25706 63.7325C1.31553 63.7934 1.38665 63.8222 1.47198 63.8222C1.55574 63.8222 1.62686 63.7934 1.68691 63.7325C1.75013 63.6732 1.78174 63.6027 1.78174 63.5209V61.8607H3.31785C3.40635 61.8607 3.47747 61.8334 3.53278 61.7773C3.58651 61.7229 3.61496 61.6555 3.61496 61.5786C3.61496 61.4889 3.58651 61.4184 3.53278 61.3671C3.47747 61.3126 3.40635 61.2838 3.31785 61.2838H1.78174Z" fill="white"/>
		<path d="M20.7181 59.4697C20.6707 59.4152 20.6075 59.3863 20.5285 59.3863C20.4479 59.3863 20.3799 59.4152 20.3262 59.4697C20.2756 59.5209 20.2503 59.5882 20.2503 59.6684V62.7453L17.8039 59.4953C17.7786 59.4616 17.7423 59.436 17.6965 59.4184C17.649 59.3975 17.6016 59.3863 17.5511 59.3863C17.4705 59.3863 17.4009 59.4168 17.3425 59.4761C17.2871 59.5322 17.2603 59.6043 17.2603 59.694V63.5466C17.2603 63.6235 17.2856 63.6908 17.3361 63.7453C17.3867 63.7966 17.4499 63.8222 17.5258 63.8222C17.6048 63.8222 17.6712 63.7966 17.7217 63.7453C17.7755 63.6908 17.8039 63.6235 17.8039 63.5466V60.4889L20.2566 63.7325C20.2819 63.7629 20.3151 63.787 20.3578 63.803C20.4036 63.8158 20.4495 63.8222 20.4969 63.8222C20.5854 63.8222 20.6565 63.7934 20.7118 63.7325C20.7655 63.6732 20.794 63.6011 20.794 63.5145V59.6684C20.794 59.5882 20.7687 59.5209 20.7181 59.4697Z" fill="white"/>
		<path fill-rule="evenodd" clip-rule="evenodd" d="M28.7441 59.6876C28.466 59.4873 28.131 59.3863 27.739 59.3863H26.2029C26.1223 59.3863 26.0528 59.4168 25.9943 59.4761C25.9343 59.537 25.9058 59.6091 25.9058 59.694V63.5209C25.9058 63.6027 25.9343 63.6732 25.9943 63.7325C26.0528 63.7934 26.1223 63.8222 26.2029 63.8222H27.739C28.131 63.8222 28.466 63.7245 28.7441 63.5273C29.0255 63.3318 29.2372 63.0658 29.3763 62.7325C29.5185 62.3959 29.5912 62.0193 29.5912 61.6043C29.5912 61.194 29.5185 60.8222 29.3763 60.4889C29.2372 60.1523 29.0255 59.8847 28.7441 59.6876ZM28.6304 62.7838C28.4186 63.0882 28.1025 63.2389 27.6821 63.2389H26.5253V59.9697H27.6821C28.0994 59.9697 28.4154 60.1267 28.6304 60.4376C28.8453 60.7453 28.9528 61.1347 28.9528 61.6043C28.9528 62.0834 28.8453 62.4761 28.6304 62.7838Z" fill="white"/>
		<path d="M34.9824 63.7325C35.0456 63.6732 35.0772 63.6011 35.0772 63.5145V59.694C35.0772 59.6091 35.0456 59.537 34.9824 59.4761C34.9223 59.4168 34.8512 59.3863 34.7675 59.3863C34.679 59.3863 34.6047 59.4168 34.5462 59.4761C34.4862 59.537 34.4577 59.6091 34.4577 59.694V63.5145C34.4577 63.6011 34.4846 63.6732 34.5399 63.7325C34.5984 63.7934 34.6726 63.8222 34.7611 63.8222C34.8449 63.8222 34.9192 63.7934 34.9824 63.7325Z" fill="white"/>
		<path d="M43.6438 59.4697C43.5964 59.4152 43.5332 59.3863 43.4542 59.3863C43.3736 59.3863 43.3056 59.4152 43.2519 59.4697C43.2013 59.5209 43.176 59.5882 43.176 59.6684V62.7453L40.7296 59.4953C40.7043 59.4616 40.668 59.436 40.6222 59.4184C40.5748 59.3975 40.5273 59.3863 40.4768 59.3863C40.3962 59.3863 40.3266 59.4168 40.2682 59.4761C40.2129 59.5322 40.186 59.6043 40.186 59.694V63.5466C40.186 63.6235 40.2113 63.6908 40.2618 63.7453C40.3124 63.7966 40.3756 63.8222 40.4515 63.8222C40.5305 63.8222 40.5969 63.7966 40.6475 63.7453C40.7012 63.6908 40.7296 63.6235 40.7296 63.5466V60.4889L43.1824 63.7325C43.2076 63.7629 43.2408 63.787 43.2835 63.803C43.3293 63.8158 43.3752 63.8222 43.4226 63.8222C43.5111 63.8222 43.5822 63.7934 43.6375 63.7325C43.6912 63.6732 43.7197 63.6011 43.7197 63.5145V59.6684C43.7197 59.5882 43.6944 59.5209 43.6438 59.4697Z" fill="white"/>
		<path d="M65.8876 59.3863C65.9713 59.3863 66.0409 59.4152 66.0962 59.4697C66.1546 59.5209 66.1847 59.5914 66.1847 59.6812C66.1847 59.7709 66.1546 59.8414 66.0962 59.8927C66.0409 59.9408 65.9713 59.9632 65.8876 59.9632H64.775V63.5209C64.775 63.6027 64.7434 63.6732 64.6802 63.7325C64.6201 63.7934 64.5443 63.8222 64.4526 63.8222C64.3641 63.8222 64.2882 63.7934 64.225 63.7325C64.165 63.6732 64.1365 63.6027 64.1365 63.5209V59.9632H63.0303C62.9418 59.9632 62.8691 59.9376 62.8153 59.8863C62.76 59.835 62.7332 59.7645 62.7332 59.6748C62.7332 59.5898 62.76 59.5209 62.8153 59.4697C62.8691 59.4152 62.9418 59.3863 63.0303 59.3863H65.8876Z" fill="white"/>
		<path fill-rule="evenodd" clip-rule="evenodd" d="M74.3078 63.3158C74.3458 63.3463 74.3774 63.3847 74.4027 63.4312C74.428 63.4745 74.4406 63.5177 74.4406 63.5594C74.4406 63.6491 74.4122 63.7164 74.3584 63.7581C74.3031 63.8014 74.2351 63.8222 74.1561 63.8222C74.0755 63.8222 74.0076 63.8062 73.9538 63.7709C73.8306 63.6988 73.7294 63.5834 73.6504 63.4248C73.5698 63.2629 73.5303 63.0257 73.5303 62.7132C73.5303 62.5049 73.4671 62.3479 73.3407 62.2453C73.2174 62.1427 73.0562 62.0914 72.8539 62.0914H71.5959V63.5209C71.5959 63.6075 71.5707 63.6796 71.5201 63.7389C71.4695 63.795 71.4031 63.8222 71.3241 63.8222C71.2309 63.8222 71.1487 63.7934 71.0776 63.7325C71.0096 63.6732 70.9764 63.6027 70.9764 63.5209V59.694C70.9764 59.6091 71.0049 59.537 71.0649 59.4761C71.1234 59.4168 71.1929 59.3863 71.2735 59.3863H73.0309C73.2537 59.3863 73.4576 59.444 73.6441 59.5594C73.8337 59.6716 73.9855 59.8254 74.0992 60.0209C74.213 60.218 74.2699 60.4376 74.2699 60.6812C74.2699 60.9168 74.2067 61.1363 74.0803 61.3414C73.9538 61.5466 73.7926 61.7004 73.5998 61.803C73.7547 61.8847 73.878 61.9985 73.9665 62.1427C74.055 62.2838 74.1024 62.4488 74.1119 62.6363C74.1277 62.8799 74.1467 63.045 74.1688 63.1299C74.1893 63.2164 74.2351 63.2773 74.3078 63.3158ZM73.0183 61.5658C73.1226 61.5578 73.2221 61.5177 73.3154 61.444C73.407 61.3671 73.4829 61.2645 73.5429 61.1363C73.6014 61.0049 73.6315 60.8591 73.6315 60.7004C73.6315 60.4953 73.5698 60.3222 73.4481 60.1812C73.3249 60.0402 73.1763 59.9697 72.9993 59.9697H71.5959V61.5658H73.0183Z" fill="white"/>
		<path fill-rule="evenodd" clip-rule="evenodd" d="M82.6602 63.4312C82.6728 63.4697 82.6791 63.5113 82.6791 63.553C82.6791 63.6347 82.6491 63.7036 82.5906 63.7581C82.5353 63.8142 82.4705 63.8415 82.3947 63.8415C82.3346 63.8415 82.2809 63.8238 82.2303 63.7902C82.1829 63.7517 82.1481 63.7004 82.1229 63.6363L81.7309 62.7068H79.8029L79.4236 63.6427C79.4015 63.7068 79.3667 63.7565 79.3161 63.7902C79.2687 63.8238 79.2166 63.8415 79.1581 63.8415C79.0727 63.8415 79.008 63.819 78.9621 63.7709C78.9147 63.7245 78.8926 63.6604 78.8926 63.5786C78.8926 63.5658 78.8957 63.5338 78.9052 63.4825L80.4982 59.5658C80.5267 59.4985 80.5678 59.4472 80.6183 59.412C80.6689 59.3735 80.7274 59.3591 80.7953 59.3671C80.8586 59.3671 80.9155 59.3847 80.966 59.4184C81.0166 59.4536 81.0514 59.5017 81.0735 59.5658L82.6602 63.4312ZM80.0431 62.1299H81.497L80.7637 60.3607L80.0431 62.1299Z" fill="white"/>
		<path fill-rule="evenodd" clip-rule="evenodd" d="M89.2137 59.3863C89.6056 59.3863 89.9407 59.4873 90.2188 59.6876C90.5001 59.8847 90.7119 60.1523 90.851 60.4889C90.9932 60.8222 91.0659 61.194 91.0659 61.6043C91.0659 62.0193 90.9932 62.3959 90.851 62.7325C90.7119 63.0658 90.5001 63.3318 90.2188 63.5273C89.9407 63.7245 89.6056 63.8222 89.2137 63.8222H87.6776C87.597 63.8222 87.5275 63.7934 87.469 63.7325C87.4089 63.6732 87.3805 63.6027 87.3805 63.5209V59.694C87.3805 59.6091 87.4089 59.537 87.469 59.4761C87.5275 59.4168 87.597 59.3863 87.6776 59.3863H89.2137ZM89.1568 63.2389C89.5772 63.2389 89.8933 63.0882 90.105 62.7838C90.32 62.4761 90.4274 62.0834 90.4274 61.6043C90.4274 61.1347 90.32 60.7453 90.105 60.4376C89.8901 60.1267 89.574 59.9697 89.1568 59.9697H88V63.2389H89.1568Z" fill="white"/>
		<path d="M98.4041 63.2389C98.4926 63.2389 98.5637 63.2693 98.619 63.3286C98.6775 63.3895 98.7075 63.46 98.7075 63.5402C98.7075 63.6219 98.6775 63.6908 98.619 63.7453C98.5637 63.7966 98.4926 63.8222 98.4041 63.8222H96.2295C96.1489 63.8222 96.0794 63.7934 96.0209 63.7325C95.9608 63.6732 95.9324 63.6027 95.9324 63.5209V59.694C95.9324 59.6091 95.9608 59.537 96.0209 59.4761C96.0794 59.4168 96.1489 59.3863 96.2295 59.3863H98.4041C98.4926 59.3863 98.5637 59.4152 98.619 59.4697C98.6775 59.5257 98.7075 59.5979 98.7075 59.6876C98.7075 59.7741 98.6775 59.8414 98.619 59.8927C98.5637 59.944 98.4926 59.9697 98.4041 59.9697H96.5519V61.2645H98.1259C98.2144 61.2645 98.2855 61.2934 98.3409 61.3479C98.3946 61.4039 98.423 61.4729 98.423 61.553C98.423 61.6427 98.3946 61.7132 98.3409 61.7645C98.2855 61.8158 98.2144 61.8414 98.1259 61.8414H96.5519V63.2389H98.4041Z" fill="white"/>
		<path fill-rule="evenodd" clip-rule="evenodd" d="M106.897 63.3158C106.935 63.3463 106.967 63.3847 106.992 63.4312C107.018 63.4745 107.03 63.5177 107.03 63.5594C107.03 63.6491 107.002 63.7164 106.948 63.7581C106.893 63.8014 106.825 63.8222 106.746 63.8222C106.665 63.8222 106.597 63.8062 106.543 63.7709C106.42 63.6988 106.319 63.5834 106.24 63.4248C106.159 63.2629 106.12 63.0257 106.12 62.7132C106.12 62.5049 106.057 62.3479 105.93 62.2453C105.807 62.1427 105.646 62.0914 105.443 62.0914H104.185V63.5209C104.185 63.6075 104.16 63.6796 104.11 63.7389C104.059 63.795 103.993 63.8222 103.914 63.8222C103.82 63.8222 103.738 63.7934 103.667 63.7325C103.599 63.6732 103.566 63.6027 103.566 63.5209V59.694C103.566 59.6091 103.594 59.537 103.654 59.4761C103.713 59.4168 103.782 59.3863 103.863 59.3863H105.62C105.843 59.3863 106.047 59.444 106.234 59.5594C106.423 59.6716 106.575 59.8254 106.689 60.0209C106.803 60.218 106.859 60.4376 106.859 60.6812C106.859 60.9168 106.796 61.1363 106.67 61.3414C106.543 61.5466 106.382 61.7004 106.189 61.803C106.344 61.8847 106.468 61.9985 106.556 62.1427C106.645 62.2838 106.692 62.4488 106.701 62.6363C106.717 62.8799 106.736 63.045 106.758 63.1299C106.779 63.2164 106.825 63.2773 106.897 63.3158ZM105.608 61.5658C105.712 61.5578 105.812 61.5177 105.905 61.444C105.997 61.3671 106.072 61.2645 106.132 61.1363C106.191 61.0049 106.221 60.8591 106.221 60.7004C106.221 60.4953 106.159 60.3222 106.038 60.1812C105.914 60.0402 105.766 59.9697 105.589 59.9697H104.185V61.5658H105.608Z" fill="white"/>
		<path d="M113.208 63.8863C112.904 63.8863 112.636 63.843 112.405 63.7581C112.173 63.6684 111.95 63.5273 111.735 63.335C111.65 63.2581 111.609 63.1716 111.609 63.0722C111.609 63.0001 111.635 62.9344 111.691 62.8735C111.749 62.8094 111.819 62.7773 111.899 62.7773C111.97 62.7773 112.032 62.8014 112.083 62.8479C112.247 63.0017 112.418 63.1171 112.595 63.194C112.772 63.2677 112.971 63.303 113.195 63.303C113.461 63.303 113.684 63.2437 113.865 63.1235C114.045 63.0001 114.137 62.8447 114.137 62.6555C114.132 62.4376 114.042 62.2693 113.865 62.1491C113.688 62.0305 113.418 61.9296 113.056 61.8479C112.626 61.7581 112.294 61.6139 112.064 61.412C111.831 61.2068 111.716 60.9248 111.716 60.5658C111.716 60.319 111.781 60.1011 111.912 59.912C112.042 59.7245 112.222 59.5818 112.449 59.4825C112.677 59.3799 112.933 59.3286 113.22 59.3286C113.481 59.3286 113.726 59.3719 113.954 59.4568C114.181 59.5386 114.366 59.6491 114.51 59.7902C114.606 59.8719 114.655 59.9616 114.655 60.0594C114.655 60.1363 114.625 60.2052 114.567 60.2645C114.512 60.3254 114.444 60.3543 114.365 60.3543C114.305 60.3543 114.259 60.3382 114.226 60.303C114.115 60.1924 113.963 60.0979 113.77 60.0209C113.581 59.944 113.397 59.9055 113.22 59.9055C112.942 59.9055 112.721 59.9664 112.557 60.085C112.392 60.2004 112.31 60.3527 112.31 60.5402C112.31 60.7501 112.392 60.9104 112.557 61.0209C112.721 61.1283 112.964 61.2197 113.29 61.2966C113.614 61.3703 113.879 61.4552 114.087 61.553C114.292 61.6475 114.453 61.7822 114.567 61.9568C114.681 62.1283 114.738 62.3527 114.738 62.6299C114.738 62.8783 114.668 63.0963 114.529 63.2838C114.393 63.4729 114.21 63.6203 113.979 63.7261C113.747 63.8318 113.489 63.8863 113.208 63.8863Z" fill="white"/>
	</g>
	<defs>
		<clipPath id="clip0_6092_4660">
			<rect width="115" height="64" fill="white"/>
		</clipPath>
	</defs>
</svg>